<svg xmlns="http://www.w3.org/2000/svg" viewBox="0 0 512 512" width="512" height="512"><path d="M436.831 74.985l-.006-.006-.001-.001-.002-.002C388.522 26.627 324.305 0 256 0 187.691 0 123.471 26.63 75.171 74.985 26.871 123.336.273 187.621.273 256s26.598 132.664 74.898 181.015l.006.006.001.001.002.002C123.479 485.373 187.695 512 256 512c68.304 0 132.522-26.627 180.822-74.976l.002-.002.001-.001.006-.006c48.298-48.352 74.897-112.637 74.897-181.015s-26.599-132.664-74.897-181.015zm-17.818 6.012l-60.825 60.891a8.347 8.347 0 0 0 5.907 14.247 8.322 8.322 0 0 0 5.907-2.449L430.81 92.81c36.04 38.66 56.887 86.45 62.53 135.678a255.61 255.61 0 0 0-184.109 69.001l-41.44-41.481 68.867-68.943a8.347 8.347 0 0 0-.007-11.805 8.347 8.347 0 0 0-11.806.007l-68.854 68.93-41.439-41.48c46.62-49.806 71.43-116.185 68.934-184.449 50.719 5.777 97.858 27.503 135.527 62.729zM256 16.696c3.591 0 7.167.09 10.731.247 2.868 64.309-20.214 126.968-63.987 173.953L92.97 81.012C137.371 39.482 194.933 16.696 256 16.696zM81.174 92.828l109.771 109.88a238.874 238.874 0 0 1-173.618 64.05c-2.772-62.21 18.516-125.294 63.847-173.93zm-62.51 190.696c3.084.111 6.165.17 9.24.17a255.588 255.588 0 0 0 174.848-69.168l41.441 41.483L81.191 419.19c-36.037-38.657-56.883-86.442-62.527-135.666zm74.323 147.48L255.992 267.82l41.439 41.48c-46.609 49.804-71.412 116.176-68.919 184.432-50.717-5.776-97.856-27.501-135.525-62.728zM256 495.304c-3.59 0-7.166-.09-10.73-.247-2.868-64.302 20.208-126.953 63.97-173.935l109.772 109.882c-44.398 41.521-101.953 64.3-163.012 64.3zm174.809-76.114L321.038 309.309a238.867 238.867 0 0 1 173.636-64.067c2.772 62.217-18.522 125.309-63.865 173.948z" fill="#bfbfbf"/></svg>